<mxfile host="app.diagrams.net" modified="2021-02-27T16:28:20.128Z" agent="5.0 (Windows NT 10.0; Win64; x64) AppleWebKit/537.36 (KHTML, like Gecko) Chrome/88.0.4324.190 Safari/537.36" etag="nTMC8B5Dg-6VuJKuEzrn" version="14.4.3" type="github">
  <diagram id="WAfGGclYRh6_A4ncjyVT" name="Page-1">
    <mxGraphModel dx="981" dy="526" grid="1" gridSize="10" guides="1" tooltips="1" connect="1" arrows="1" fold="1" page="1" pageScale="1" pageWidth="850" pageHeight="1100" math="0" shadow="0">
      <root>
        <mxCell id="0" />
        <mxCell id="1" parent="0" />
        <mxCell id="OGcejD1uZ171Bco8pJOZ-11" style="edgeStyle=none;rounded=0;orthogonalLoop=1;jettySize=auto;html=1;entryX=0.5;entryY=0;entryDx=0;entryDy=0;" edge="1" parent="1" source="OGcejD1uZ171Bco8pJOZ-2" target="OGcejD1uZ171Bco8pJOZ-3">
          <mxGeometry relative="1" as="geometry" />
        </mxCell>
        <mxCell id="OGcejD1uZ171Bco8pJOZ-2" value="" style="rounded=0;whiteSpace=wrap;html=1;" vertex="1" parent="1">
          <mxGeometry x="365" y="90" width="120" height="60" as="geometry" />
        </mxCell>
        <mxCell id="OGcejD1uZ171Bco8pJOZ-9" style="edgeStyle=none;rounded=0;orthogonalLoop=1;jettySize=auto;html=1;entryX=0.5;entryY=0;entryDx=0;entryDy=0;" edge="1" parent="1" source="OGcejD1uZ171Bco8pJOZ-3" target="OGcejD1uZ171Bco8pJOZ-5">
          <mxGeometry relative="1" as="geometry" />
        </mxCell>
        <mxCell id="OGcejD1uZ171Bco8pJOZ-3" value="" style="ellipse;whiteSpace=wrap;html=1;aspect=fixed;" vertex="1" parent="1">
          <mxGeometry x="385" y="200" width="80" height="80" as="geometry" />
        </mxCell>
        <mxCell id="OGcejD1uZ171Bco8pJOZ-4" value="" style="rhombus;whiteSpace=wrap;html=1;" vertex="1" parent="1">
          <mxGeometry x="385" y="410" width="80" height="80" as="geometry" />
        </mxCell>
        <mxCell id="OGcejD1uZ171Bco8pJOZ-10" style="edgeStyle=none;rounded=0;orthogonalLoop=1;jettySize=auto;html=1;" edge="1" parent="1" source="OGcejD1uZ171Bco8pJOZ-5" target="OGcejD1uZ171Bco8pJOZ-4">
          <mxGeometry relative="1" as="geometry" />
        </mxCell>
        <mxCell id="OGcejD1uZ171Bco8pJOZ-5" value="" style="shape=parallelogram;perimeter=parallelogramPerimeter;whiteSpace=wrap;html=1;fixedSize=1;" vertex="1" parent="1">
          <mxGeometry x="365" y="310" width="120" height="60" as="geometry" />
        </mxCell>
      </root>
    </mxGraphModel>
  </diagram>
</mxfile>
